<mxfile host="app.diagrams.net" modified="2020-12-03T20:49:52.896Z" agent="5.0 (Windows NT 10.0; Win64; x64) AppleWebKit/537.36 (KHTML, like Gecko) Chrome/87.0.4280.88 Safari/537.36" etag="EdMyPC4W_9Cze7_vAvpp" version="13.10.6" type="github">
  <diagram name="Page-1" id="9f46799a-70d6-7492-0946-bef42562c5a5">
    <mxGraphModel dx="2337" dy="663" grid="1" gridSize="10" guides="1" tooltips="1" connect="1" arrows="1" fold="1" page="1" pageScale="1" pageWidth="1100" pageHeight="850" background="#ffffff" math="0" shadow="0">
      <root>
        <mxCell id="0" />
        <mxCell id="1" parent="0" />
        <mxCell id="CeHuumown2IRZD5TIOBZ-5" value="player" style="swimlane;html=1;fontStyle=1;align=center;verticalAlign=top;childLayout=stackLayout;horizontal=1;startSize=26;horizontalStack=0;resizeParent=1;resizeLast=0;collapsible=1;marginBottom=0;swimlaneFillColor=#ffffff;rounded=0;shadow=0;comic=0;labelBackgroundColor=none;strokeWidth=1;fillColor=none;fontFamily=Verdana;fontSize=12" vertex="1" parent="1">
          <mxGeometry x="230" y="320" width="190" height="200" as="geometry">
            <mxRectangle x="490" y="260" width="70" height="26" as="alternateBounds" />
          </mxGeometry>
        </mxCell>
        <mxCell id="CeHuumown2IRZD5TIOBZ-6" value="name: user i/p String" style="text;html=1;strokeColor=none;fillColor=none;align=left;verticalAlign=top;spacingLeft=4;spacingRight=4;whiteSpace=wrap;overflow=hidden;rotatable=0;points=[[0,0.5],[1,0.5]];portConstraint=eastwest;" vertex="1" parent="CeHuumown2IRZD5TIOBZ-5">
          <mxGeometry y="26" width="190" height="26" as="geometry" />
        </mxCell>
        <mxCell id="CeHuumown2IRZD5TIOBZ-7" value="mark: user i/p&amp;nbsp;String" style="text;html=1;strokeColor=none;fillColor=none;align=left;verticalAlign=top;spacingLeft=4;spacingRight=4;whiteSpace=wrap;overflow=hidden;rotatable=0;points=[[0,0.5],[1,0.5]];portConstraint=eastwest;" vertex="1" parent="CeHuumown2IRZD5TIOBZ-5">
          <mxGeometry y="52" width="190" height="26" as="geometry" />
        </mxCell>
        <mxCell id="CeHuumown2IRZD5TIOBZ-10" value="moves: Array of user i/p" style="text;html=1;strokeColor=none;fillColor=none;align=left;verticalAlign=top;spacingLeft=4;spacingRight=4;whiteSpace=wrap;overflow=hidden;rotatable=0;points=[[0,0.5],[1,0.5]];portConstraint=eastwest;" vertex="1" parent="CeHuumown2IRZD5TIOBZ-5">
          <mxGeometry y="78" width="190" height="26" as="geometry" />
        </mxCell>
        <mxCell id="CeHuumown2IRZD5TIOBZ-12" value="" style="line;html=1;strokeWidth=1;fillColor=none;align=left;verticalAlign=middle;spacingTop=-1;spacingLeft=3;spacingRight=3;rotatable=0;labelPosition=right;points=[];portConstraint=eastwest;" vertex="1" parent="CeHuumown2IRZD5TIOBZ-5">
          <mxGeometry y="104" width="190" height="8" as="geometry" />
        </mxCell>
        <mxCell id="CeHuumown2IRZD5TIOBZ-14" value="initialize" style="text;html=1;strokeColor=none;fillColor=none;align=left;verticalAlign=top;spacingLeft=4;spacingRight=4;whiteSpace=wrap;overflow=hidden;rotatable=0;points=[[0,0.5],[1,0.5]];portConstraint=eastwest;" vertex="1" parent="CeHuumown2IRZD5TIOBZ-5">
          <mxGeometry y="112" width="190" height="26" as="geometry" />
        </mxCell>
        <mxCell id="CeHuumown2IRZD5TIOBZ-15" value="+ method(type): type" style="text;html=1;strokeColor=none;fillColor=none;align=left;verticalAlign=top;spacingLeft=4;spacingRight=4;whiteSpace=wrap;overflow=hidden;rotatable=0;points=[[0,0.5],[1,0.5]];portConstraint=eastwest;" vertex="1" parent="CeHuumown2IRZD5TIOBZ-5">
          <mxGeometry y="138" width="190" height="26" as="geometry" />
        </mxCell>
        <mxCell id="CeHuumown2IRZD5TIOBZ-41" value="board" style="swimlane;html=1;fontStyle=1;align=center;verticalAlign=top;childLayout=stackLayout;horizontal=1;startSize=26;horizontalStack=0;resizeParent=1;resizeLast=0;collapsible=1;marginBottom=0;swimlaneFillColor=#ffffff;rounded=0;shadow=0;comic=0;labelBackgroundColor=none;strokeWidth=1;fillColor=none;fontFamily=Verdana;fontSize=12" vertex="1" parent="1">
          <mxGeometry x="740" y="319" width="200" height="200" as="geometry" />
        </mxCell>
        <mxCell id="CeHuumown2IRZD5TIOBZ-42" value="board: [[1,2,3],[4,5,6],[7,8,9]]" style="text;html=1;strokeColor=none;fillColor=none;align=left;verticalAlign=top;spacingLeft=4;spacingRight=4;whiteSpace=wrap;overflow=hidden;rotatable=0;points=[[0,0.5],[1,0.5]];portConstraint=eastwest;" vertex="1" parent="CeHuumown2IRZD5TIOBZ-41">
          <mxGeometry y="26" width="200" height="26" as="geometry" />
        </mxCell>
        <mxCell id="CeHuumown2IRZD5TIOBZ-43" value="board_moves: moves counter" style="text;html=1;strokeColor=none;fillColor=none;align=left;verticalAlign=top;spacingLeft=4;spacingRight=4;whiteSpace=wrap;overflow=hidden;rotatable=0;points=[[0,0.5],[1,0.5]];portConstraint=eastwest;" vertex="1" parent="CeHuumown2IRZD5TIOBZ-41">
          <mxGeometry y="52" width="200" height="26" as="geometry" />
        </mxCell>
        <mxCell id="CeHuumown2IRZD5TIOBZ-44" value="--" style="text;html=1;strokeColor=none;fillColor=none;align=left;verticalAlign=top;spacingLeft=4;spacingRight=4;whiteSpace=wrap;overflow=hidden;rotatable=0;points=[[0,0.5],[1,0.5]];portConstraint=eastwest;" vertex="1" parent="CeHuumown2IRZD5TIOBZ-41">
          <mxGeometry y="78" width="200" height="26" as="geometry" />
        </mxCell>
        <mxCell id="CeHuumown2IRZD5TIOBZ-45" value="" style="line;html=1;strokeWidth=1;fillColor=none;align=left;verticalAlign=middle;spacingTop=-1;spacingLeft=3;spacingRight=3;rotatable=0;labelPosition=right;points=[];portConstraint=eastwest;" vertex="1" parent="CeHuumown2IRZD5TIOBZ-41">
          <mxGeometry y="104" width="200" height="8" as="geometry" />
        </mxCell>
        <mxCell id="CeHuumown2IRZD5TIOBZ-46" value="initialize" style="text;html=1;strokeColor=none;fillColor=none;align=left;verticalAlign=top;spacingLeft=4;spacingRight=4;whiteSpace=wrap;overflow=hidden;rotatable=0;points=[[0,0.5],[1,0.5]];portConstraint=eastwest;" vertex="1" parent="CeHuumown2IRZD5TIOBZ-41">
          <mxGeometry y="112" width="200" height="26" as="geometry" />
        </mxCell>
        <mxCell id="CeHuumown2IRZD5TIOBZ-47" value="+ method(type): type" style="text;html=1;strokeColor=none;fillColor=none;align=left;verticalAlign=top;spacingLeft=4;spacingRight=4;whiteSpace=wrap;overflow=hidden;rotatable=0;points=[[0,0.5],[1,0.5]];portConstraint=eastwest;" vertex="1" parent="CeHuumown2IRZD5TIOBZ-41">
          <mxGeometry y="138" width="200" height="26" as="geometry" />
        </mxCell>
        <mxCell id="CeHuumown2IRZD5TIOBZ-48" value="+ method(type): type" style="text;html=1;strokeColor=none;fillColor=none;align=left;verticalAlign=top;spacingLeft=4;spacingRight=4;whiteSpace=wrap;overflow=hidden;rotatable=0;points=[[0,0.5],[1,0.5]];portConstraint=eastwest;" vertex="1" parent="CeHuumown2IRZD5TIOBZ-41">
          <mxGeometry y="164" width="200" height="26" as="geometry" />
        </mxCell>
        <mxCell id="CeHuumown2IRZD5TIOBZ-49" value="game&lt;br&gt;" style="swimlane;html=1;fontStyle=1;align=center;verticalAlign=top;childLayout=stackLayout;horizontal=1;startSize=26;horizontalStack=0;resizeParent=1;resizeLast=0;collapsible=1;marginBottom=0;swimlaneFillColor=#ffffff;rounded=0;shadow=0;comic=0;labelBackgroundColor=none;strokeWidth=1;fillColor=none;fontFamily=Verdana;fontSize=12" vertex="1" parent="1">
          <mxGeometry x="510" y="320" width="160" height="216" as="geometry" />
        </mxCell>
        <mxCell id="CeHuumown2IRZD5TIOBZ-50" value="-" style="text;html=1;strokeColor=none;fillColor=none;align=left;verticalAlign=top;spacingLeft=4;spacingRight=4;whiteSpace=wrap;overflow=hidden;rotatable=0;points=[[0,0.5],[1,0.5]];portConstraint=eastwest;" vertex="1" parent="CeHuumown2IRZD5TIOBZ-49">
          <mxGeometry y="26" width="160" height="26" as="geometry" />
        </mxCell>
        <mxCell id="CeHuumown2IRZD5TIOBZ-144" value="-" style="text;html=1;strokeColor=none;fillColor=none;align=left;verticalAlign=top;spacingLeft=4;spacingRight=4;whiteSpace=wrap;overflow=hidden;rotatable=0;points=[[0,0.5],[1,0.5]];portConstraint=eastwest;" vertex="1" parent="CeHuumown2IRZD5TIOBZ-49">
          <mxGeometry y="52" width="160" height="26" as="geometry" />
        </mxCell>
        <mxCell id="CeHuumown2IRZD5TIOBZ-53" value="" style="line;html=1;strokeWidth=1;fillColor=none;align=left;verticalAlign=middle;spacingTop=-1;spacingLeft=3;spacingRight=3;rotatable=0;labelPosition=right;points=[];portConstraint=eastwest;" vertex="1" parent="CeHuumown2IRZD5TIOBZ-49">
          <mxGeometry y="78" width="160" height="8" as="geometry" />
        </mxCell>
        <mxCell id="CeHuumown2IRZD5TIOBZ-55" value="initialize" style="text;html=1;strokeColor=none;fillColor=none;align=left;verticalAlign=top;spacingLeft=4;spacingRight=4;whiteSpace=wrap;overflow=hidden;rotatable=0;points=[[0,0.5],[1,0.5]];portConstraint=eastwest;" vertex="1" parent="CeHuumown2IRZD5TIOBZ-49">
          <mxGeometry y="86" width="160" height="26" as="geometry" />
        </mxCell>
        <mxCell id="CeHuumown2IRZD5TIOBZ-54" value="create_player" style="text;html=1;strokeColor=none;fillColor=none;align=left;verticalAlign=top;spacingLeft=4;spacingRight=4;whiteSpace=wrap;overflow=hidden;rotatable=0;points=[[0,0.5],[1,0.5]];portConstraint=eastwest;" vertex="1" parent="CeHuumown2IRZD5TIOBZ-49">
          <mxGeometry y="112" width="160" height="26" as="geometry" />
        </mxCell>
        <mxCell id="CeHuumown2IRZD5TIOBZ-56" value="create_board" style="text;html=1;strokeColor=none;fillColor=none;align=left;verticalAlign=top;spacingLeft=4;spacingRight=4;whiteSpace=wrap;overflow=hidden;rotatable=0;points=[[0,0.5],[1,0.5]];portConstraint=eastwest;" vertex="1" parent="CeHuumown2IRZD5TIOBZ-49">
          <mxGeometry y="138" width="160" height="26" as="geometry" />
        </mxCell>
        <mxCell id="CeHuumown2IRZD5TIOBZ-169" value="vaild_name?" style="text;html=1;strokeColor=none;fillColor=none;align=left;verticalAlign=top;spacingLeft=4;spacingRight=4;whiteSpace=wrap;overflow=hidden;rotatable=0;points=[[0,0.5],[1,0.5]];portConstraint=eastwest;" vertex="1" parent="CeHuumown2IRZD5TIOBZ-49">
          <mxGeometry y="164" width="160" height="26" as="geometry" />
        </mxCell>
        <mxCell id="CeHuumown2IRZD5TIOBZ-75" style="edgeStyle=orthogonalEdgeStyle;rounded=0;orthogonalLoop=1;jettySize=auto;html=1;exitX=0.5;exitY=1;exitDx=0;exitDy=0;entryX=0.5;entryY=0;entryDx=0;entryDy=0;" edge="1" parent="1" source="CeHuumown2IRZD5TIOBZ-59" target="CeHuumown2IRZD5TIOBZ-61">
          <mxGeometry relative="1" as="geometry" />
        </mxCell>
        <mxCell id="CeHuumown2IRZD5TIOBZ-59" value="start" style="ellipse;whiteSpace=wrap;html=1;direction=east;" vertex="1" parent="1">
          <mxGeometry x="-680" y="49" width="150" height="30" as="geometry" />
        </mxCell>
        <mxCell id="CeHuumown2IRZD5TIOBZ-76" style="edgeStyle=orthogonalEdgeStyle;rounded=0;orthogonalLoop=1;jettySize=auto;html=1;exitX=0.5;exitY=1;exitDx=0;exitDy=0;entryX=0.5;entryY=0;entryDx=0;entryDy=0;" edge="1" parent="1" source="CeHuumown2IRZD5TIOBZ-61" target="CeHuumown2IRZD5TIOBZ-62">
          <mxGeometry relative="1" as="geometry" />
        </mxCell>
        <mxCell id="CeHuumown2IRZD5TIOBZ-61" value="welcome msg&lt;br&gt;and rules" style="whiteSpace=wrap;html=1;direction=east;" vertex="1" parent="1">
          <mxGeometry x="-680" y="99" width="150" height="30" as="geometry" />
        </mxCell>
        <mxCell id="CeHuumown2IRZD5TIOBZ-78" style="edgeStyle=orthogonalEdgeStyle;rounded=0;orthogonalLoop=1;jettySize=auto;html=1;exitX=0.5;exitY=1;exitDx=0;exitDy=0;entryX=0.5;entryY=0;entryDx=0;entryDy=0;" edge="1" parent="1" source="CeHuumown2IRZD5TIOBZ-62" target="CeHuumown2IRZD5TIOBZ-63">
          <mxGeometry relative="1" as="geometry">
            <Array as="points">
              <mxPoint x="-605" y="209" />
              <mxPoint x="-605" y="209" />
            </Array>
          </mxGeometry>
        </mxCell>
        <mxCell id="CeHuumown2IRZD5TIOBZ-62" value="enter player 1 name" style="shape=parallelogram;perimeter=parallelogramPerimeter;whiteSpace=wrap;html=1;fixedSize=1;direction=east;" vertex="1" parent="1">
          <mxGeometry x="-680" y="159" width="150" height="30" as="geometry" />
        </mxCell>
        <mxCell id="CeHuumown2IRZD5TIOBZ-63" value="enter player 1 mark" style="shape=parallelogram;perimeter=parallelogramPerimeter;whiteSpace=wrap;html=1;fixedSize=1;direction=east;size=20;" vertex="1" parent="1">
          <mxGeometry x="-680" y="214" width="150" height="30" as="geometry" />
        </mxCell>
        <mxCell id="CeHuumown2IRZD5TIOBZ-88" style="edgeStyle=orthogonalEdgeStyle;rounded=0;orthogonalLoop=1;jettySize=auto;html=1;exitX=0.5;exitY=1;exitDx=0;exitDy=0;entryX=0.5;entryY=0;entryDx=0;entryDy=0;" edge="1" parent="1" source="CeHuumown2IRZD5TIOBZ-64" target="CeHuumown2IRZD5TIOBZ-69">
          <mxGeometry relative="1" as="geometry">
            <mxPoint x="-385" y="267.9999999999999" as="targetPoint" />
          </mxGeometry>
        </mxCell>
        <mxCell id="CeHuumown2IRZD5TIOBZ-64" value="player 1,2 name and mark" style="whiteSpace=wrap;html=1;direction=east;" vertex="1" parent="1">
          <mxGeometry x="-680" y="324" width="150" height="30" as="geometry" />
        </mxCell>
        <mxCell id="CeHuumown2IRZD5TIOBZ-65" value="enter player 2 name" style="shape=parallelogram;perimeter=parallelogramPerimeter;whiteSpace=wrap;html=1;fixedSize=1;direction=east;" vertex="1" parent="1">
          <mxGeometry x="-680" y="264" width="150" height="30" as="geometry" />
        </mxCell>
        <mxCell id="CeHuumown2IRZD5TIOBZ-90" style="edgeStyle=orthogonalEdgeStyle;rounded=0;orthogonalLoop=1;jettySize=auto;html=1;exitX=0.5;exitY=1;exitDx=0;exitDy=0;entryX=0.5;entryY=0;entryDx=0;entryDy=0;" edge="1" parent="1" target="CeHuumown2IRZD5TIOBZ-64">
          <mxGeometry relative="1" as="geometry">
            <mxPoint x="-605" y="294" as="sourcePoint" />
            <mxPoint x="-605" y="319" as="targetPoint" />
          </mxGeometry>
        </mxCell>
        <mxCell id="CeHuumown2IRZD5TIOBZ-168" style="edgeStyle=orthogonalEdgeStyle;rounded=0;orthogonalLoop=1;jettySize=auto;html=1;entryX=0.5;entryY=0;entryDx=0;entryDy=0;" edge="1" parent="1" source="CeHuumown2IRZD5TIOBZ-69" target="CeHuumown2IRZD5TIOBZ-152">
          <mxGeometry relative="1" as="geometry" />
        </mxCell>
        <mxCell id="CeHuumown2IRZD5TIOBZ-69" value="instruction msg" style="whiteSpace=wrap;html=1;direction=east;" vertex="1" parent="1">
          <mxGeometry x="-680" y="384" width="150" height="30" as="geometry" />
        </mxCell>
        <mxCell id="CeHuumown2IRZD5TIOBZ-136" style="edgeStyle=orthogonalEdgeStyle;rounded=0;orthogonalLoop=1;jettySize=auto;html=1;exitX=0.5;exitY=1;exitDx=0;exitDy=0;entryX=0.5;entryY=0;entryDx=0;entryDy=0;" edge="1" parent="1" target="CeHuumown2IRZD5TIOBZ-106">
          <mxGeometry relative="1" as="geometry">
            <mxPoint x="-340" y="158" as="sourcePoint" />
          </mxGeometry>
        </mxCell>
        <mxCell id="CeHuumown2IRZD5TIOBZ-99" value="player turn" style="shape=parallelogram;perimeter=parallelogramPerimeter;whiteSpace=wrap;html=1;fixedSize=1;" vertex="1" parent="1">
          <mxGeometry x="-400" y="120" width="120" height="40" as="geometry" />
        </mxCell>
        <mxCell id="CeHuumown2IRZD5TIOBZ-155" style="edgeStyle=orthogonalEdgeStyle;rounded=0;orthogonalLoop=1;jettySize=auto;html=1;" edge="1" parent="1" source="CeHuumown2IRZD5TIOBZ-106" target="CeHuumown2IRZD5TIOBZ-109">
          <mxGeometry relative="1" as="geometry" />
        </mxCell>
        <mxCell id="CeHuumown2IRZD5TIOBZ-106" value="update board&lt;br&gt;" style="whiteSpace=wrap;html=1;" vertex="1" parent="1">
          <mxGeometry x="-400" y="178" width="120" height="40" as="geometry" />
        </mxCell>
        <mxCell id="CeHuumown2IRZD5TIOBZ-111" value="" style="edgeStyle=orthogonalEdgeStyle;rounded=0;orthogonalLoop=1;jettySize=auto;html=1;" edge="1" parent="1" source="CeHuumown2IRZD5TIOBZ-109" target="CeHuumown2IRZD5TIOBZ-110">
          <mxGeometry relative="1" as="geometry" />
        </mxCell>
        <mxCell id="CeHuumown2IRZD5TIOBZ-160" style="edgeStyle=orthogonalEdgeStyle;rounded=0;orthogonalLoop=1;jettySize=auto;html=1;entryX=0;entryY=0.5;entryDx=0;entryDy=0;" edge="1" parent="1" source="CeHuumown2IRZD5TIOBZ-109" target="CeHuumown2IRZD5TIOBZ-132">
          <mxGeometry relative="1" as="geometry" />
        </mxCell>
        <mxCell id="CeHuumown2IRZD5TIOBZ-109" value="is winner ?" style="rhombus;whiteSpace=wrap;html=1;" vertex="1" parent="1">
          <mxGeometry x="-400" y="242" width="120" height="80" as="geometry" />
        </mxCell>
        <mxCell id="CeHuumown2IRZD5TIOBZ-159" style="edgeStyle=orthogonalEdgeStyle;rounded=0;orthogonalLoop=1;jettySize=auto;html=1;entryX=0.5;entryY=0;entryDx=0;entryDy=0;" edge="1" parent="1" source="CeHuumown2IRZD5TIOBZ-110" target="CeHuumown2IRZD5TIOBZ-114">
          <mxGeometry relative="1" as="geometry" />
        </mxCell>
        <mxCell id="CeHuumown2IRZD5TIOBZ-110" value="winner msg" style="whiteSpace=wrap;html=1;" vertex="1" parent="1">
          <mxGeometry x="-400" y="350" width="120" height="30" as="geometry" />
        </mxCell>
        <mxCell id="CeHuumown2IRZD5TIOBZ-116" value="" style="edgeStyle=orthogonalEdgeStyle;rounded=0;orthogonalLoop=1;jettySize=auto;html=1;entryX=0;entryY=0.5;entryDx=0;entryDy=0;" edge="1" parent="1" source="CeHuumown2IRZD5TIOBZ-114" target="CeHuumown2IRZD5TIOBZ-117">
          <mxGeometry relative="1" as="geometry">
            <mxPoint x="-102.5" y="455" as="targetPoint" />
          </mxGeometry>
        </mxCell>
        <mxCell id="CeHuumown2IRZD5TIOBZ-118" style="edgeStyle=orthogonalEdgeStyle;rounded=0;orthogonalLoop=1;jettySize=auto;html=1;exitX=0.5;exitY=1;exitDx=0;exitDy=0;entryX=0.5;entryY=0;entryDx=0;entryDy=0;" edge="1" parent="1" source="CeHuumown2IRZD5TIOBZ-114" target="CeHuumown2IRZD5TIOBZ-121">
          <mxGeometry relative="1" as="geometry">
            <mxPoint x="-203" y="480" as="targetPoint" />
          </mxGeometry>
        </mxCell>
        <mxCell id="CeHuumown2IRZD5TIOBZ-114" value="another &lt;br&gt;game ?" style="rhombus;whiteSpace=wrap;html=1;" vertex="1" parent="1">
          <mxGeometry x="-262.5" y="400" width="120" height="60" as="geometry" />
        </mxCell>
        <mxCell id="CeHuumown2IRZD5TIOBZ-117" value="start" style="ellipse;whiteSpace=wrap;html=1;" vertex="1" parent="1">
          <mxGeometry x="-102.5" y="415" width="60" height="30" as="geometry" />
        </mxCell>
        <mxCell id="CeHuumown2IRZD5TIOBZ-121" value="end" style="ellipse;whiteSpace=wrap;html=1;" vertex="1" parent="1">
          <mxGeometry x="-232.5" y="489" width="60" height="30" as="geometry" />
        </mxCell>
        <mxCell id="CeHuumown2IRZD5TIOBZ-122" value="yes" style="text;html=1;align=center;verticalAlign=middle;resizable=0;points=[];autosize=1;" vertex="1" parent="1">
          <mxGeometry x="-143.5" y="409" width="30" height="20" as="geometry" />
        </mxCell>
        <mxCell id="CeHuumown2IRZD5TIOBZ-129" value="yes" style="text;html=1;align=center;verticalAlign=middle;resizable=0;points=[];autosize=1;" vertex="1" parent="1">
          <mxGeometry x="-340" y="322" width="30" height="20" as="geometry" />
        </mxCell>
        <mxCell id="CeHuumown2IRZD5TIOBZ-161" style="edgeStyle=orthogonalEdgeStyle;rounded=0;orthogonalLoop=1;jettySize=auto;html=1;entryX=0.5;entryY=0;entryDx=0;entryDy=0;" edge="1" parent="1" source="CeHuumown2IRZD5TIOBZ-132" target="CeHuumown2IRZD5TIOBZ-162">
          <mxGeometry relative="1" as="geometry">
            <mxPoint x="-90" y="349.9999999999999" as="targetPoint" />
          </mxGeometry>
        </mxCell>
        <mxCell id="CeHuumown2IRZD5TIOBZ-167" style="edgeStyle=orthogonalEdgeStyle;rounded=0;orthogonalLoop=1;jettySize=auto;html=1;entryX=1;entryY=0.5;entryDx=0;entryDy=0;" edge="1" parent="1" source="CeHuumown2IRZD5TIOBZ-132" target="CeHuumown2IRZD5TIOBZ-152">
          <mxGeometry relative="1" as="geometry">
            <Array as="points">
              <mxPoint x="-90" y="85" />
            </Array>
          </mxGeometry>
        </mxCell>
        <mxCell id="CeHuumown2IRZD5TIOBZ-132" value="is draw ?" style="rhombus;whiteSpace=wrap;html=1;" vertex="1" parent="1">
          <mxGeometry x="-150" y="240" width="120" height="84" as="geometry" />
        </mxCell>
        <mxCell id="CeHuumown2IRZD5TIOBZ-149" style="edgeStyle=orthogonalEdgeStyle;rounded=0;orthogonalLoop=1;jettySize=auto;html=1;" edge="1" parent="1" source="CeHuumown2IRZD5TIOBZ-140" target="CeHuumown2IRZD5TIOBZ-55">
          <mxGeometry relative="1" as="geometry" />
        </mxCell>
        <mxCell id="CeHuumown2IRZD5TIOBZ-140" value="main&lt;br&gt;" style="whiteSpace=wrap;html=1;rounded=1;" vertex="1" parent="1">
          <mxGeometry x="510" y="79" width="140" height="120" as="geometry" />
        </mxCell>
        <mxCell id="CeHuumown2IRZD5TIOBZ-150" style="edgeStyle=orthogonalEdgeStyle;rounded=0;orthogonalLoop=1;jettySize=auto;html=1;" edge="1" parent="1" source="CeHuumown2IRZD5TIOBZ-54" target="CeHuumown2IRZD5TIOBZ-14">
          <mxGeometry relative="1" as="geometry" />
        </mxCell>
        <mxCell id="CeHuumown2IRZD5TIOBZ-153" style="edgeStyle=orthogonalEdgeStyle;rounded=0;orthogonalLoop=1;jettySize=auto;html=1;exitX=0.5;exitY=1;exitDx=0;exitDy=0;entryX=0.5;entryY=0;entryDx=0;entryDy=0;" edge="1" parent="1" source="CeHuumown2IRZD5TIOBZ-152" target="CeHuumown2IRZD5TIOBZ-99">
          <mxGeometry relative="1" as="geometry" />
        </mxCell>
        <mxCell id="CeHuumown2IRZD5TIOBZ-152" value="toggle turn" style="rounded=0;whiteSpace=wrap;html=1;" vertex="1" parent="1">
          <mxGeometry x="-400" y="70" width="120" height="30" as="geometry" />
        </mxCell>
        <mxCell id="CeHuumown2IRZD5TIOBZ-163" style="edgeStyle=orthogonalEdgeStyle;rounded=0;orthogonalLoop=1;jettySize=auto;html=1;exitX=0;exitY=0.5;exitDx=0;exitDy=0;entryX=0.5;entryY=0;entryDx=0;entryDy=0;" edge="1" parent="1" source="CeHuumown2IRZD5TIOBZ-162" target="CeHuumown2IRZD5TIOBZ-114">
          <mxGeometry relative="1" as="geometry" />
        </mxCell>
        <mxCell id="CeHuumown2IRZD5TIOBZ-162" value="draw msg" style="rounded=0;whiteSpace=wrap;html=1;" vertex="1" parent="1">
          <mxGeometry x="-150" y="350" width="120" height="30" as="geometry" />
        </mxCell>
        <mxCell id="CeHuumown2IRZD5TIOBZ-164" value="yes" style="text;html=1;align=center;verticalAlign=middle;resizable=0;points=[];autosize=1;" vertex="1" parent="1">
          <mxGeometry x="-75" y="320" width="30" height="20" as="geometry" />
        </mxCell>
        <mxCell id="CeHuumown2IRZD5TIOBZ-170" style="edgeStyle=orthogonalEdgeStyle;rounded=0;orthogonalLoop=1;jettySize=auto;html=1;entryX=0;entryY=0.5;entryDx=0;entryDy=0;" edge="1" parent="1" source="CeHuumown2IRZD5TIOBZ-56" target="CeHuumown2IRZD5TIOBZ-46">
          <mxGeometry relative="1" as="geometry" />
        </mxCell>
        <mxCell id="CeHuumown2IRZD5TIOBZ-173" style="edgeStyle=orthogonalEdgeStyle;rounded=0;orthogonalLoop=1;jettySize=auto;html=1;entryX=1;entryY=0.5;entryDx=0;entryDy=0;" edge="1" parent="1" source="CeHuumown2IRZD5TIOBZ-169" target="CeHuumown2IRZD5TIOBZ-6">
          <mxGeometry relative="1" as="geometry" />
        </mxCell>
      </root>
    </mxGraphModel>
  </diagram>
</mxfile>
